<svg width="285" height="100" viewBox="0 0 285 100" fill="none" xmlns="http://www.w3.org/2000/svg">
<rect width="285" height="100" fill="black"/>
<path d="M248.804 57.511V53.478H268.192V57.511H248.804ZM261.68 36.125L275 63.875H269.783L257.684 37.975H259.571L247.472 63.875H242.255L255.575 36.125H261.68Z" fill="#F9F3EA"/>
<path d="M219.168 48.631H230.453C232.081 48.631 233.364 48.261 234.301 47.521C235.263 46.781 235.744 45.7697 235.744 44.487C235.744 43.1797 235.263 42.1683 234.301 41.453C233.364 40.713 232.081 40.343 230.453 40.343H218.465L220.648 37.605V63.875H215.764V36.125H230.897C232.846 36.125 234.548 36.4827 236.003 37.198C237.483 37.8887 238.63 38.863 239.444 40.121C240.283 41.3543 240.702 42.8097 240.702 44.487C240.702 46.115 240.283 47.558 239.444 48.816C238.63 50.0493 237.483 51.0237 236.003 51.739C234.548 52.4297 232.846 52.775 230.897 52.775H219.168V48.631ZM224.644 50.888H230.379L241.405 63.875H235.559L224.644 50.888Z" fill="#F9F3EA"/>
<path d="M195.109 64.393C191.952 64.393 189.177 63.7887 186.784 62.58C184.392 61.3713 182.529 59.694 181.197 57.548C179.865 55.3773 179.199 52.8613 179.199 50C179.199 47.1387 179.865 44.635 181.197 42.489C182.529 40.3183 184.392 38.6287 186.784 37.42C189.177 36.2113 191.952 35.607 195.109 35.607C198.267 35.607 201.042 36.2113 203.434 37.42C205.827 38.6287 207.689 40.3183 209.021 42.489C210.353 44.635 211.019 47.1387 211.019 50C211.019 52.8613 210.353 55.3773 209.021 57.548C207.689 59.694 205.827 61.3713 203.434 62.58C201.042 63.7887 198.267 64.393 195.109 64.393ZM195.109 60.027C197.354 60.027 199.29 59.62 200.918 58.806C202.546 57.992 203.804 56.8327 204.692 55.328C205.605 53.8233 206.061 52.0473 206.061 50C206.061 47.9527 205.605 46.1767 204.692 44.672C203.804 43.1673 202.546 42.008 200.918 41.194C199.29 40.38 197.354 39.973 195.109 39.973C192.889 39.973 190.953 40.38 189.3 41.194C187.672 42.008 186.402 43.1673 185.489 44.672C184.601 46.1767 184.157 47.9527 184.157 50C184.157 52.0473 184.601 53.8233 185.489 55.328C186.402 56.8327 187.672 57.992 189.3 58.806C190.953 59.62 192.889 60.027 195.109 60.027Z" fill="#F9F3EA"/>
<path d="M174.472 36.125V63.875H169.81V37.605L171.327 37.679L158.414 63.875H153.197L140.284 37.716L141.801 37.642V63.875H137.139V36.125H144.613L157.045 61.766H154.603L166.998 36.125H174.472Z" fill="#F9F3EA"/>
<path d="M109.748 51.961C109.748 53.6137 110.081 55.0443 110.747 56.253C111.413 57.4617 112.363 58.399 113.596 59.065C114.854 59.7063 116.346 60.027 118.073 60.027C119.824 60.027 121.317 59.7063 122.55 59.065C123.783 58.399 124.733 57.4617 125.399 56.253C126.065 55.0443 126.398 53.6137 126.398 51.961V36.125H131.282V52.146C131.282 54.588 130.727 56.734 129.617 58.584C128.507 60.4093 126.965 61.84 124.992 62.876C123.019 63.8873 120.712 64.393 118.073 64.393C115.458 64.393 113.152 63.8873 111.154 62.876C109.181 61.84 107.639 60.4093 106.529 58.584C105.419 56.734 104.864 54.588 104.864 52.146V36.125H109.748V51.961Z" fill="#F9F3EA"/>
<path d="M84.2107 36.125V61.692L82.0277 59.583H102.933V63.875H79.3267V36.125H84.2107Z" fill="#F9F3EA"/>
<path d="M65.7417 75.3047H16.915V36.1233C16.915 22.7544 27.901 11.8163 41.3284 11.8163C54.7557 11.8163 65.7417 22.7544 65.7417 36.1233V75.3047Z" fill="#FAF4EB"/>
<mask id="mask0_15_199" style="mask-type:luminance" maskUnits="userSpaceOnUse" x="38" y="49" width="31" height="27">
<path d="M66.3247 49.5103H41.0004C39.7979 49.5103 38.8141 50.4898 38.8141 51.687V52.9023C38.8141 54.0996 39.7979 55.0791 41.0004 55.0791H42.8587V55.4237C42.8587 55.46 42.8587 55.4782 42.8405 55.5144L38.3222 74.7968C38.2675 75.0507 38.4497 75.3047 38.723 75.3047H40.7635C40.9093 75.3047 41.0368 75.2321 41.1097 75.1051L41.2372 74.9056C41.2554 74.8693 41.2737 74.833 41.2737 74.7968L45.9559 57.1289C45.9559 57.1289 46.0106 56.2582 48.3426 55.587C48.6341 55.4963 48.9256 55.3875 49.2171 55.2423L49.5451 55.0791H66.3247C67.5271 55.0791 68.5109 54.0996 68.5109 52.9023V51.687C68.5109 50.4898 67.5271 49.5103 66.3247 49.5103Z" fill="white"/>
</mask>
<g mask="url(#mask0_15_199)">
<path d="M67.0352 74.6154H65.1951V37.248C65.1951 23.8791 54.2091 12.941 40.7818 12.941C27.3544 12.941 16.3684 23.8791 16.3684 37.248V74.6154H14.3643C13.8542 74.6154 13.4352 75.0326 13.4352 75.5405V77.3363C13.4352 77.8442 13.8542 78.2615 14.3643 78.2615H67.017C67.5271 78.2615 67.9462 77.8442 67.9462 77.3363V75.5405C67.9462 75.0326 67.5454 74.6154 67.0352 74.6154Z" fill="#483116"/>
</g>
<path d="M33.7129 39.6967C33.7129 41.6921 32.4922 43.4335 31.7817 44.286C31.5084 44.6126 31.0165 44.6126 30.7432 44.286C30.0327 43.4335 28.812 41.6921 28.812 39.6967C28.812 37.7014 30.0327 35.96 30.7432 35.1074C31.0165 34.7809 31.5084 34.7809 31.7817 35.1074C32.4922 35.9781 33.7129 37.7014 33.7129 39.6967Z" fill="#9D9952"/>
<path d="M31.7088 42.5628H30.7979V64.1489H31.7088V42.5628Z" fill="#9D9952"/>
<path d="M40.0531 43.0344C38.9599 42.98 36.883 43.0707 35.4437 44.3042C34.0044 45.5196 33.5853 47.5512 33.476 48.6396C33.4578 48.7303 33.476 48.821 33.4943 48.9117L30.7979 52.0317L31.3444 52.5033L34.0044 49.4377C34.059 49.4558 34.1319 49.474 34.1866 49.474C35.2797 49.5284 37.3567 49.4377 38.796 48.2042C40.2353 46.9889 40.6543 44.9572 40.7636 43.8689C40.8183 43.4517 40.4721 43.0526 40.0531 43.0344Z" fill="#9D9952"/>
<path d="M22.5082 43.0344C23.6014 42.98 25.6783 43.0707 27.1176 44.3042C28.5569 45.5196 28.9759 47.5512 29.0853 48.6396C29.1035 48.7303 29.0853 48.821 29.067 48.9117L31.7634 52.0317L31.2169 52.5033L28.5751 49.4196C28.5205 49.4377 28.4476 49.4558 28.3929 49.4558C27.2998 49.5103 25.2228 49.4196 23.7835 48.1861C22.3443 46.9707 21.9252 44.9391 21.8159 43.8507C21.7612 43.4516 22.0892 43.0526 22.5082 43.0344Z" fill="#9D9952"/>
<path d="M17.3158 51.6688C17.3158 51.6688 32.4739 60.3032 34.3323 66.5432C36.1906 72.7832 38.887 73.6902 38.887 73.6902L17.3158 74.7242V51.6688Z" fill="#E7C56E"/>
<path d="M67.5818 77.1186H14.9292C14.419 77.1186 14 76.7014 14 76.1935V74.3977C14 73.8897 14.419 73.4725 14.9292 73.4725H67.5818C68.092 73.4725 68.511 73.8897 68.511 74.3977V76.1935C68.511 76.7014 68.092 77.1186 67.5818 77.1186Z" fill="#483116"/>
<path d="M64.9219 36.1233C64.9219 23.2052 54.303 12.6326 41.3284 12.6326C28.3539 12.6326 17.7349 23.2052 17.7349 36.1233V74.4884H64.9219V36.1233ZM66.5616 76.1209H16.0952V36.1233C16.0952 22.3036 27.4483 11 41.3284 11C55.2085 11 66.5616 22.3036 66.5616 36.1233V76.1209Z" fill="#483116"/>
</svg>
